<svg width="166" height="37" viewBox="0 0 166 37" fill="none" xmlns="http://www.w3.org/2000/svg">
<path d="M59.2314 1.35645L58.792 3.13867C58.2549 3.1875 57.7178 3.30957 57.1807 3.50488C56.6436 3.7002 56.1227 3.91992 55.6182 4.16406C54.8369 4.55469 54.2266 4.99414 53.7871 5.48242C53.3477 5.95443 52.8919 6.58919 52.4199 7.38672C50.8086 10.1048 48.4648 14.125 45.3887 19.4473C42.3125 24.7695 39.0573 30.4173 35.623 36.3906H30.5449L27.4199 10.8047L13.3574 36.3906H8.47461C7.79102 30.2871 7.15625 24.5498 6.57031 19.1787C6.00065 13.8076 5.56934 9.8444 5.27637 7.28906C5.16243 6.42643 4.97526 5.79167 4.71484 5.38477C4.4707 4.96159 4.03939 4.53027 3.4209 4.09082C3.03027 3.81413 2.6071 3.61068 2.15137 3.48047C1.69564 3.33398 1.16667 3.22005 0.564453 3.13867L0.979492 1.35645H19.0947L18.6553 3.13867C17.4834 3.26888 16.5719 3.40723 15.9209 3.55371C15.2699 3.7002 14.7816 3.86296 14.4561 4.04199C14.1631 4.20475 13.9922 4.39193 13.9434 4.60352C13.8945 4.79883 13.8701 5.00228 13.8701 5.21387C13.8701 5.53939 13.8864 5.92188 13.9189 6.36133C13.9515 6.78451 13.9922 7.24837 14.041 7.75293C14.1712 9.28288 14.4072 11.708 14.749 15.0283C15.1071 18.3324 15.5059 22.1898 15.9453 26.6006L29.5928 1.35645H34.793L37.9424 27.3818C39.8792 23.8825 41.6777 20.6191 43.3379 17.5918C44.998 14.5482 46.3164 12.0824 47.293 10.1943C47.8952 9.03874 48.416 7.96452 48.8555 6.97168C49.3112 5.97884 49.5391 5.33594 49.5391 5.04297C49.5391 4.53841 49.1077 4.12337 48.2451 3.79785C47.3988 3.47233 46.1536 3.2526 44.5098 3.13867L44.9492 1.35645H59.2314ZM80.96 8.11914C80.96 6.50781 80.4473 5.3278 79.4219 4.5791C78.4128 3.8304 77.0781 3.45605 75.418 3.45605C75.0924 3.45605 74.71 3.47233 74.2705 3.50488C73.8311 3.52116 73.4893 3.53743 73.2451 3.55371L70.2178 16.5908H71.8535C74.653 16.5908 76.8665 15.8177 78.4941 14.2715C80.138 12.709 80.96 10.6582 80.96 8.11914ZM79.0557 24.5498C79.0557 22.6781 78.4535 21.2458 77.249 20.2529C76.0446 19.2438 74.2624 18.7393 71.9023 18.7393C71.5768 18.7393 71.1699 18.7555 70.6816 18.7881C70.2096 18.8044 69.8841 18.8206 69.7051 18.8369L66.7266 31.7275C66.7428 32.3298 67.1904 32.8424 68.0693 33.2656C68.9482 33.6888 69.9248 33.9004 70.999 33.9004C73.1637 33.9004 75.0436 33.0296 76.6387 31.2881C78.25 29.5465 79.0557 27.3005 79.0557 24.5498ZM78.3965 1.35645C82.5794 1.35645 85.6475 1.87728 87.6006 2.91895C89.57 3.94434 90.5547 5.52311 90.5547 7.65527C90.5547 9.07129 90.2373 10.3164 89.6025 11.3906C88.984 12.4648 88.1621 13.3682 87.1367 14.1006C86.1113 14.8493 84.9232 15.4759 83.5723 15.9805C82.2376 16.485 80.8542 16.8838 79.4219 17.1768L79.3242 17.6406C80.4473 17.7546 81.5866 17.9987 82.7422 18.373C83.9141 18.7311 84.915 19.195 85.7451 19.7646C86.6403 20.3669 87.3483 21.0993 87.8691 21.9619C88.39 22.8245 88.6504 23.8743 88.6504 25.1113C88.6504 28.6758 87.153 31.3857 84.1582 33.2412C81.1797 35.0804 76.777 36 70.9502 36H52.0049L52.4199 34.2178C52.8268 34.2015 53.429 34.1445 54.2266 34.0469C55.0404 33.9329 55.6426 33.8109 56.0332 33.6807C56.668 33.4691 57.1481 33.1517 57.4736 32.7285C57.8154 32.3053 58.0514 31.8089 58.1816 31.2393L63.7725 7.02051C63.8538 6.67871 63.9108 6.39388 63.9434 6.16602C63.9759 5.93815 63.9922 5.76725 63.9922 5.65332C63.9922 4.96973 63.6423 4.44076 62.9424 4.06641C62.2588 3.67578 61.1357 3.36654 59.5732 3.13867L59.9883 1.35645H78.3965ZM108.938 36.9277C106.709 36.9277 104.642 36.6022 102.737 35.9512C100.833 35.2839 99.1891 34.3317 97.8057 33.0947C96.4385 31.8577 95.3724 30.3522 94.6074 28.5781C93.8424 26.7878 93.46 24.7695 93.46 22.5234C93.46 19.5449 94.0052 16.7373 95.0957 14.1006C96.2025 11.4639 97.7568 9.11198 99.7588 7.04492C101.679 5.05924 104.023 3.46419 106.79 2.25977C109.573 1.03906 112.527 0.428711 115.652 0.428711C117.54 0.428711 119.453 0.656576 121.39 1.1123C123.326 1.56803 124.775 2.09701 125.735 2.69922L127.566 1.35645H129.69L126.98 14.0029H124.832C124.507 10.3083 123.522 7.50065 121.878 5.58008C120.25 3.64323 118.151 2.6748 115.579 2.6748C113.691 2.6748 111.95 3.23633 110.354 4.35938C108.759 5.48242 107.343 7.20768 106.106 9.53516C105.097 11.4557 104.324 13.6855 103.787 16.2246C103.266 18.7474 103.006 21.1156 103.006 23.3291C103.006 26.5843 103.795 29.1152 105.374 30.9219C106.953 32.7285 109.069 33.6318 111.722 33.6318C114.049 33.6318 116.206 32.9808 118.191 31.6787C120.177 30.3766 122.09 28.4967 123.929 26.0391L125.809 27.3086C125.011 28.5456 124.059 29.7663 122.952 30.9707C121.845 32.1589 120.584 33.1924 119.168 34.0713C117.687 34.999 116.157 35.707 114.578 36.1953C113.016 36.6836 111.136 36.9277 108.938 36.9277ZM144.729 36.9277C142.5 36.9277 140.433 36.6022 138.528 35.9512C136.624 35.2839 134.98 34.3317 133.597 33.0947C132.229 31.8577 131.163 30.3522 130.398 28.5781C129.633 26.7878 129.251 24.7695 129.251 22.5234C129.251 19.5449 129.796 16.7373 130.887 14.1006C131.993 11.4639 133.548 9.11198 135.55 7.04492C137.47 5.05924 139.814 3.46419 142.581 2.25977C145.364 1.03906 148.318 0.428711 151.443 0.428711C153.331 0.428711 155.244 0.656576 157.181 1.1123C159.118 1.56803 160.566 2.09701 161.526 2.69922L163.357 1.35645H165.481L162.771 14.0029H160.623C160.298 10.3083 159.313 7.50065 157.669 5.58008C156.041 3.64323 153.942 2.6748 151.37 2.6748C149.482 2.6748 147.741 3.23633 146.146 4.35938C144.55 5.48242 143.134 7.20768 141.897 9.53516C140.888 11.4557 140.115 13.6855 139.578 16.2246C139.057 18.7474 138.797 21.1156 138.797 23.3291C138.797 26.5843 139.586 29.1152 141.165 30.9219C142.744 32.7285 144.86 33.6318 147.513 33.6318C149.84 33.6318 151.997 32.9808 153.982 31.6787C155.968 30.3766 157.881 28.4967 159.72 26.0391L161.6 27.3086C160.802 28.5456 159.85 29.7663 158.743 30.9707C157.636 32.1589 156.375 33.1924 154.959 34.0713C153.478 34.999 151.948 35.707 150.369 36.1953C148.807 36.6836 146.927 36.9277 144.729 36.9277Z" fill="black"/>
<path d="M59.2314 1.35645L62.1442 2.07466L63.061 -1.64355H59.2314V1.35645ZM58.792 3.13867L59.0636 6.12635L61.1929 5.93278L61.7048 3.85689L58.792 3.13867ZM55.6182 4.16406L54.3115 1.46358L54.2939 1.47207L54.2765 1.48078L55.6182 4.16406ZM53.7871 5.48242L55.9828 7.52668L56 7.50814L56.017 7.48932L53.7871 5.48242ZM52.4199 7.38672L55.0005 8.91655L55.0017 8.91468L52.4199 7.38672ZM35.623 36.3906V39.3906H37.3587L38.2238 37.8859L35.623 36.3906ZM30.5449 36.3906L27.5671 36.7543L27.889 39.3906H30.5449V36.3906ZM27.4199 10.8047L30.3978 10.441L29.2703 1.2096L24.7909 9.3597L27.4199 10.8047ZM13.3574 36.3906V39.3906H15.1318L15.9865 37.8356L13.3574 36.3906ZM8.47461 36.3906L5.49325 36.7245L5.79185 39.3906H8.47461V36.3906ZM6.57031 19.1787L3.58703 19.4951L3.58801 19.5041L6.57031 19.1787ZM5.27637 7.28906L8.25684 6.94735L8.25391 6.92177L8.25054 6.89625L5.27637 7.28906ZM4.71484 5.38477L2.11629 6.88393L2.1508 6.94376L2.18803 7.00193L4.71484 5.38477ZM3.4209 4.09082L5.15852 1.64528L5.15495 1.64275L3.4209 4.09082ZM2.15137 3.48047L1.23334 6.33655L1.28004 6.35156L1.3272 6.36504L2.15137 3.48047ZM0.564453 3.13867L-2.35737 2.45825L-3.10531 5.67003L0.162699 6.11165L0.564453 3.13867ZM0.979492 1.35645V-1.64355H-1.40215L-1.94233 0.676022L0.979492 1.35645ZM19.0947 1.35645L22.0075 2.07466L22.9243 -1.64355H19.0947V1.35645ZM18.6553 3.13867L18.9866 6.12032L21.0669 5.88917L21.568 3.85689L18.6553 3.13867ZM14.4561 4.04199L13.0103 1.41332L12.9991 1.41952L14.4561 4.04199ZM13.9434 4.60352L16.8538 5.33112L16.8604 5.30467L16.8665 5.27809L13.9434 4.60352ZM13.9189 6.36133L10.9271 6.58294L10.9278 6.59142L13.9189 6.36133ZM14.041 7.75293L17.0302 7.49853L17.0287 7.48123L17.0271 7.46396L14.041 7.75293ZM14.749 15.0283L11.7648 15.3355L11.7656 15.3435L11.7665 15.3516L14.749 15.0283ZM15.9453 26.6006L12.9601 26.898L13.9303 36.636L18.5843 28.0273L15.9453 26.6006ZM29.5928 1.35645V-1.64355H27.8043L26.9537 -0.0702659L29.5928 1.35645ZM34.793 1.35645L37.7712 0.996035L37.4518 -1.64355H34.793V1.35645ZM37.9424 27.3818L34.9641 27.7422L36.0778 36.9456L40.5672 28.8346L37.9424 27.3818ZM43.3379 17.5918L45.9683 19.0343L45.9716 19.0284L43.3379 17.5918ZM47.293 10.1943L44.6325 8.80791L44.6283 8.81607L47.293 10.1943ZM48.8555 6.97168L46.129 5.72018L46.1205 5.73875L46.1122 5.75744L48.8555 6.97168ZM48.2451 3.79785L47.1682 6.59789L47.1771 6.6013L47.1859 6.60466L48.2451 3.79785ZM44.5098 3.13867L41.597 2.42046L40.7428 5.88479L44.3023 6.13149L44.5098 3.13867ZM44.9492 1.35645V-1.64355H42.5991L42.0365 0.638231L44.9492 1.35645ZM56.3187 0.638231L55.8792 2.42046L61.7048 3.85689L62.1442 2.07466L56.3187 0.638231ZM58.5204 0.150992C57.711 0.224575 56.921 0.407119 56.1554 0.685503L58.2059 6.32426C58.5146 6.21202 58.7988 6.15043 59.0636 6.12635L58.5204 0.150992ZM56.1554 0.685503C55.5244 0.914962 54.9096 1.1742 54.3115 1.46358L56.9248 6.86454C57.3359 6.66565 57.7627 6.48543 58.2059 6.32426L56.1554 0.685503ZM54.2765 1.48078C53.2639 1.98708 52.3156 2.63286 51.5572 3.47553L56.017 7.48932C56.1375 7.35542 56.4099 7.12229 56.9598 6.84734L54.2765 1.48078ZM51.5914 3.43817C50.9568 4.11984 50.3767 4.94886 49.8382 5.85876L55.0017 8.91468C55.4072 8.22952 55.7385 7.78901 55.9828 7.52668L51.5914 3.43817ZM49.8393 5.85689C48.2193 8.58961 45.8689 12.6213 42.7913 17.946L47.986 20.9485C51.0608 15.6287 53.3979 11.62 55.0005 8.91655L49.8393 5.85689ZM42.7913 17.946C39.7139 23.2705 36.4575 28.9203 33.0223 34.8953L38.2238 37.8859C41.6571 31.9143 44.9111 26.2686 47.986 20.9485L42.7913 17.946ZM35.623 33.3906H30.5449V39.3906H35.623V33.3906ZM33.5228 36.0269L30.3978 10.441L24.4421 11.1684L27.5671 36.7543L33.5228 36.0269ZM24.7909 9.3597L10.7284 34.9456L15.9865 37.8356L30.049 12.2497L24.7909 9.3597ZM13.3574 33.3906H8.47461V39.3906H13.3574V33.3906ZM11.456 36.0567C10.7727 29.9557 10.1382 24.2213 9.55262 18.8534L3.58801 19.5041C4.17429 24.8784 4.80938 30.6185 5.49325 36.7245L11.456 36.0567ZM9.55358 18.8623C8.98377 13.4898 8.55134 9.51604 8.25684 6.94735L2.29589 7.63077C2.58733 10.1728 3.01753 14.1254 3.58704 19.4951L9.55358 18.8623ZM8.25054 6.89625C8.11798 5.8926 7.85941 4.73284 7.24166 3.7676L2.18803 7.00193C2.1211 6.89735 2.13215 6.8759 2.17303 7.01451C2.21143 7.14475 2.25965 7.35975 2.3022 7.68188L8.25054 6.89625ZM7.3134 3.8856C6.76751 2.93939 5.95404 2.21052 5.15852 1.64528L1.68328 6.53636C1.88728 6.68131 2.01439 6.79268 2.08693 6.86522C2.16083 6.93912 2.15314 6.94781 2.11629 6.88393L7.3134 3.8856ZM5.15495 1.64275C4.49066 1.17221 3.76032 0.820123 2.97553 0.595897L1.3272 6.36504C1.45387 6.40123 1.56988 6.45604 1.68685 6.53889L5.15495 1.64275ZM3.06939 0.624383C2.40754 0.411644 1.69929 0.26476 0.966207 0.165695L0.162699 6.11165C0.634046 6.17534 0.983737 6.25633 1.23334 6.33655L3.06939 0.624383ZM3.48627 3.8191L3.90131 2.03687L-1.94233 0.676022L-2.35737 2.45825L3.48627 3.8191ZM0.979492 4.35645H19.0947V-1.64355H0.979492V4.35645ZM16.182 0.638231L15.7425 2.42046L21.568 3.85689L22.0075 2.07466L16.182 0.638231ZM18.324 0.157021C17.1117 0.291721 16.0731 0.444473 15.2624 0.626882L16.5794 6.48054C17.0708 6.36998 17.8551 6.24604 18.9866 6.12032L18.324 0.157021ZM15.2624 0.626882C14.5177 0.794425 13.7053 1.03109 13.0103 1.41334L15.9018 6.67064C15.8583 6.69455 15.8825 6.6759 16.0151 6.63169C16.1409 6.58977 16.3249 6.5378 16.5794 6.48054L15.2624 0.626882ZM12.9991 1.41952C12.3642 1.77223 11.3432 2.52931 11.0202 3.92894L16.8665 5.27809C16.6412 6.25454 15.9619 6.63727 15.913 6.66446L12.9991 1.41952ZM11.0329 3.87591C10.9217 4.321 10.8701 4.76948 10.8701 5.21387H16.8701C16.8701 5.23508 16.8674 5.27666 16.8538 5.33112L11.0329 3.87591ZM10.8701 5.21387C10.8701 5.63391 10.8909 6.0936 10.9271 6.58294L16.9107 6.13971C16.8819 5.75015 16.8701 5.44486 16.8701 5.21387H10.8701ZM10.9278 6.59142C10.9621 7.03756 11.0046 7.52136 11.055 8.0419L17.0271 7.46396C16.9798 6.97538 16.9409 6.53145 16.9101 6.13124L10.9278 6.59142ZM11.0518 8.00733C11.1844 9.56551 11.4228 12.013 11.7648 15.3355L17.7333 14.7211C17.3917 11.403 17.158 9.00024 17.0302 7.49853L11.0518 8.00733ZM11.7665 15.3516C12.1234 18.6447 12.5212 22.4932 12.9601 26.898L18.9305 26.3032C18.4905 21.8864 18.0908 18.02 17.7316 14.7051L11.7665 15.3516ZM18.5843 28.0273L32.2318 2.78316L26.9537 -0.0702659L13.3063 25.1739L18.5843 28.0273ZM29.5928 4.35645H34.793V-1.64355H29.5928V4.35645ZM31.8147 1.71686L34.9641 27.7422L40.9207 27.0214L37.7712 0.996035L31.8147 1.71686ZM40.5672 28.8346C42.5056 25.3324 44.306 22.0656 45.9683 19.0343L40.7075 16.1493C39.0494 19.1727 37.2529 22.4326 35.3176 25.9291L40.5672 28.8346ZM45.9716 19.0284C47.6366 15.9758 48.9667 13.4884 49.9576 11.5726L44.6283 8.81607C43.6661 10.6763 42.3595 13.1206 40.7042 16.1552L45.9716 19.0284ZM49.9534 11.5808C50.5794 10.3794 51.129 9.24714 51.5988 8.18592L46.1122 5.75744C45.703 6.68189 45.2109 7.69806 44.6325 8.80792L49.9534 11.5808ZM51.582 8.22318C51.8279 7.68735 52.0396 7.18774 52.1958 6.74708C52.3125 6.41794 52.5391 5.75341 52.5391 5.04297H46.5391C46.5391 4.89321 46.5529 4.78181 46.5615 4.72499C46.5705 4.66445 46.5794 4.62703 46.5815 4.61861C46.5847 4.60547 46.5762 4.64192 46.5405 4.74267C46.4688 4.94491 46.3388 5.26317 46.129 5.72018L51.582 8.22318ZM52.5391 5.04297C52.5391 2.46537 50.3017 1.36744 49.3043 0.991046L47.1859 6.60466C47.4213 6.69347 47.3277 6.69998 47.1354 6.51499C47.0251 6.40877 46.8692 6.22625 46.7421 5.95525C46.6103 5.67425 46.5391 5.36013 46.5391 5.04297H52.5391ZM49.3221 0.997815C48.0567 0.511123 46.4579 0.266496 44.7172 0.145851L44.3023 6.13149C45.8494 6.23871 46.7409 6.43354 47.1682 6.59789L49.3221 0.997815ZM47.4225 3.85689L47.862 2.07466L42.0365 0.638231L41.597 2.42046L47.4225 3.85689ZM44.9492 4.35645H59.2314V-1.64355H44.9492V4.35645ZM79.4219 4.5791L77.6343 6.9884L77.6435 6.99522L77.6528 7.00198L79.4219 4.5791ZM74.2705 3.50488L74.3815 6.50283L74.4369 6.50078L74.4921 6.49669L74.2705 3.50488ZM73.2451 3.55371L73.0456 0.560355L70.826 0.708325L70.3229 2.87514L73.2451 3.55371ZM70.2178 16.5908L67.2955 15.9122L66.4413 19.5908H70.2178V16.5908ZM78.4941 14.2715L80.5604 16.4465L80.561 16.4459L78.4941 14.2715ZM77.249 20.2529L75.3224 22.5525L75.3316 22.5602L75.3408 22.5678L77.249 20.2529ZM70.6816 18.7881L70.785 21.7863L70.8332 21.7846L70.8812 21.7814L70.6816 18.7881ZM69.7051 18.8369L69.4335 15.8492L67.2709 16.0458L66.7821 18.1615L69.7051 18.8369ZM66.7266 31.7275L63.8036 31.0522L63.7173 31.4255L63.7277 31.8086L66.7266 31.7275ZM68.0693 33.2656L66.7679 35.9686L68.0693 33.2656ZM76.6387 31.2881L74.4366 29.2507L74.4315 29.2563L74.4264 29.2618L76.6387 31.2881ZM87.6006 2.91895L86.1888 5.566L86.2019 5.573L86.2151 5.57988L87.6006 2.91895ZM89.6025 11.3906L87.0198 9.86444L87.0111 9.87904L87.0027 9.89373L89.6025 11.3906ZM87.1367 14.1006L85.393 11.6594L85.3803 11.6685L85.3676 11.6777L87.1367 14.1006ZM83.5723 15.9805L82.5226 13.1701L82.5114 13.1743L83.5723 15.9805ZM79.4219 17.1768L78.8207 14.2376L76.8918 14.6322L76.4862 16.5587L79.4219 17.1768ZM79.3242 17.6406L76.3886 17.0226L75.701 20.2885L79.0214 20.6253L79.3242 17.6406ZM82.7422 18.373L81.8177 21.227L81.8415 21.2348L81.8655 21.2421L82.7422 18.373ZM85.7451 19.7646L84.0476 22.2382L84.0591 22.2461L84.0706 22.2538L85.7451 19.7646ZM84.1582 33.2412L85.7344 35.7938L85.7382 35.7914L84.1582 33.2412ZM52.0049 36L49.0831 35.3196L48.226 39H52.0049V36ZM52.4199 34.2178L52.3 31.2202L50.0164 31.3115L49.4981 33.5373L52.4199 34.2178ZM54.2266 34.0469L54.5912 37.0246L54.6169 37.0215L54.6425 37.0179L54.2266 34.0469ZM56.0332 33.6807L56.9819 36.5267L56.0332 33.6807ZM57.4736 32.7285L55.1398 30.8435L55.1175 30.8712L55.0958 30.8994L57.4736 32.7285ZM58.1816 31.2393L55.2585 30.5645L55.2571 30.5708L58.1816 31.2393ZM63.7725 7.02051L60.854 6.32565L60.8517 6.33567L60.8493 6.34571L63.7725 7.02051ZM62.9424 4.06641L61.454 6.67114L61.4904 6.69196L61.5274 6.71176L62.9424 4.06641ZM59.5732 3.13867L56.6514 2.45825L55.9113 5.63637L59.1403 6.10727L59.5732 3.13867ZM59.9883 1.35645V-1.64355H57.6066L57.0665 0.676022L59.9883 1.35645ZM83.96 8.11914C83.96 5.83584 83.1949 3.61944 81.191 2.15622L77.6528 7.00198C77.6996 7.03616 77.96 7.17979 77.96 8.11914H83.96ZM81.2094 2.16981C79.5394 0.930766 77.5162 0.456055 75.418 0.456055V6.45605C76.6401 6.45605 77.2861 6.73004 77.6343 6.9884L81.2094 2.16981ZM75.418 0.456055C74.9979 0.456055 74.5382 0.476832 74.0489 0.51308L74.4921 6.49669C74.8817 6.46783 75.187 6.45605 75.418 6.45605V0.456055ZM74.1595 0.506938C73.7097 0.523596 73.3336 0.541153 73.0456 0.560355L73.4447 6.54707C73.6449 6.53372 73.9524 6.51872 74.3815 6.50283L74.1595 0.506938ZM70.3229 2.87514L67.2955 15.9122L73.14 17.2694L76.1674 4.23229L70.3229 2.87514ZM70.2178 19.5908H71.8535V13.5908H70.2178V19.5908ZM71.8535 19.5908C75.2228 19.5908 78.2458 18.6453 80.5604 16.4465L76.4279 12.0965C75.4872 12.9901 74.0832 13.5908 71.8535 13.5908V19.5908ZM80.561 16.4459C82.8749 14.2466 83.96 11.372 83.96 8.11914H77.96C77.96 9.94442 77.4012 11.1714 76.4273 12.097L80.561 16.4459ZM82.0557 24.5498C82.0557 21.9794 81.192 19.6154 79.1572 17.938L75.3408 22.5678C75.7149 22.8762 76.0557 23.3767 76.0557 24.5498H82.0557ZM79.1757 17.9534C77.2177 16.3129 74.6263 15.7393 71.9023 15.7393V21.7393C73.8985 21.7393 74.8715 22.1748 75.3224 22.5525L79.1757 17.9534ZM71.9023 15.7393C71.4861 15.7393 71.0074 15.7597 70.4821 15.7947L70.8812 21.7814C71.3325 21.7514 71.6675 21.7393 71.9023 21.7393V15.7393ZM70.5783 15.7899C70.1118 15.806 69.7074 15.8243 69.4335 15.8492L69.9767 21.8246C70.0608 21.8169 70.3075 21.8028 70.785 21.7863L70.5783 15.7899ZM66.7821 18.1615L63.8036 31.0522L69.6495 32.4029L72.6281 19.5123L66.7821 18.1615ZM63.7277 31.8086C63.7902 34.1232 65.55 35.3822 66.7679 35.9686L69.3708 30.5626C69.1508 30.4567 69.2021 30.4392 69.3344 30.5907C69.4089 30.6761 69.5082 30.8147 69.5895 31.01C69.6726 31.2099 69.7196 31.428 69.7255 31.6465L63.7277 31.8086ZM66.7679 35.9686C68.0925 36.6064 69.5204 36.9004 70.999 36.9004V30.9004C70.3292 30.9004 69.804 30.7712 69.3708 30.5626L66.7679 35.9686ZM70.999 36.9004C74.0869 36.9004 76.7454 35.6133 78.851 33.3143L74.4264 29.2618C73.3418 30.446 72.2405 30.9004 70.999 30.9004V36.9004ZM78.8407 33.3255C81.0462 30.9418 82.0557 27.9272 82.0557 24.5498H76.0557C76.0557 26.6738 75.4538 28.1513 74.4366 29.2507L78.8407 33.3255ZM78.3965 4.35645C82.4521 4.35645 84.9065 4.88208 86.1888 5.566L89.0124 0.271886C86.3885 -1.12753 82.7068 -1.64355 78.3965 -1.64355V4.35645ZM86.2151 5.57988C86.8166 5.89301 87.1126 6.20624 87.2707 6.45971C87.4246 6.70646 87.5547 7.06678 87.5547 7.65527H93.5547C93.5547 6.1116 93.1924 4.61646 92.3616 3.28443C91.535 1.95913 90.354 0.970271 88.986 0.258015L86.2151 5.57988ZM87.5547 7.65527C87.5547 8.60825 87.3461 9.31214 87.0198 9.86444L92.1853 12.9168C93.1285 11.3207 93.5547 9.53433 93.5547 7.65527H87.5547ZM87.0027 9.89373C86.6023 10.5892 86.0746 11.1725 85.393 11.6594L88.8804 16.5418C90.2496 15.5638 91.3658 14.3405 92.2024 12.8875L87.0027 9.89373ZM85.3676 11.6777C84.5909 12.2449 83.6513 12.7485 82.5226 13.1701L84.6219 18.7908C86.1951 18.2033 87.6318 17.4537 88.9058 16.5235L85.3676 11.6777ZM82.5114 13.1743C81.3298 13.621 80.1003 13.9759 78.8207 14.2376L80.0231 20.1159C81.608 19.7917 83.1454 19.3491 84.6331 18.7866L82.5114 13.1743ZM76.4862 16.5587L76.3886 17.0226L82.2599 18.2587L82.3575 17.7948L76.4862 16.5587ZM79.0214 20.6253C79.9178 20.7162 80.8489 20.9132 81.8177 21.227L83.6667 15.5191C82.3243 15.0842 80.9767 14.7929 79.627 14.6559L79.0214 20.6253ZM81.8655 21.2421C82.8063 21.5296 83.5171 21.8742 84.0476 22.2382L87.4426 17.2911C86.3129 16.5158 85.0218 15.9327 83.6188 15.504L81.8655 21.2421ZM84.0706 22.2538C84.6292 22.6296 85.0218 23.0501 85.3009 23.5125L90.4373 20.4113C89.6748 19.1484 88.6514 18.1041 87.4196 17.2755L84.0706 22.2538ZM85.3009 23.5125C85.4814 23.8113 85.6504 24.2968 85.6504 25.1113H91.6504C91.6504 23.4519 91.2986 21.8377 90.4373 20.4113L85.3009 23.5125ZM85.6504 25.1113C85.6504 27.6522 84.6775 29.3903 82.5782 30.691L85.7382 35.7914C89.6285 33.3811 91.6504 29.6994 91.6504 25.1113H85.6504ZM82.582 30.6886C80.2959 32.1003 76.5505 33 70.9502 33V39C77.0035 39 82.0634 38.0605 85.7344 35.7938L82.582 30.6886ZM70.9502 33H52.0049V39H70.9502V33ZM54.9267 36.6804L55.3417 34.8982L49.4981 33.5373L49.0831 35.3196L54.9267 36.6804ZM52.5398 37.2154C53.0734 37.194 53.7744 37.1247 54.5912 37.0246L53.8619 31.0691C53.0837 31.1644 52.5803 31.209 52.3 31.2202L52.5398 37.2154ZM54.6425 37.0179C55.4962 36.8984 56.3212 36.7469 56.9819 36.5267L55.0845 30.8346C54.964 30.8748 54.5845 30.9675 53.8106 31.0758L54.6425 37.0179ZM56.9819 36.5267C58.0398 36.1741 59.0789 35.5621 59.8515 34.5576L55.0958 30.8994C55.1218 30.8656 55.1476 30.8382 55.1703 30.8174C55.1928 30.7967 55.2091 30.7853 55.2151 30.7813C55.2263 30.7739 55.192 30.7988 55.0845 30.8346L56.9819 36.5267ZM59.8075 34.6135C60.4572 33.8091 60.882 32.8889 61.1062 31.9077L55.2571 30.5708C55.2209 30.729 55.1737 30.8016 55.1398 30.8435L59.8075 34.6135ZM61.1048 31.9141L66.6956 7.6953L60.8493 6.34571L55.2585 30.5645L61.1048 31.9141ZM66.6909 7.71537C66.7837 7.32539 66.8628 6.94309 66.9132 6.59028L60.9735 5.74175C60.9588 5.84468 60.924 6.03203 60.854 6.32565L66.6909 7.71537ZM66.9132 6.59028C66.9499 6.33325 66.9922 5.9892 66.9922 5.65332H60.9922C60.9922 5.61265 60.9936 5.58621 60.994 5.5783C60.9945 5.56943 60.9947 5.57021 60.9935 5.58252C60.991 5.60861 60.9852 5.65977 60.9735 5.74175L66.9132 6.59028ZM66.9922 5.65332C66.9922 3.66281 65.8428 2.21558 64.3573 1.42105L61.5274 6.71176C61.5468 6.72215 61.388 6.64141 61.2277 6.3991C61.0524 6.13414 60.9922 5.85223 60.9922 5.65332H66.9922ZM64.4308 1.46168C63.2351 0.778408 61.6429 0.408757 60.0062 0.170073L59.1403 6.10727C60.6286 6.32432 61.2825 6.57315 61.454 6.67114L64.4308 1.46168ZM62.4951 3.8191L62.9101 2.03687L57.0665 0.676022L56.6514 2.45825L62.4951 3.8191ZM59.9883 4.35645H78.3965V-1.64355H59.9883V4.35645ZM102.737 35.9512L101.745 38.7824L101.756 38.7862L101.767 38.7899L102.737 35.9512ZM97.8057 33.0947L95.7929 35.3193L95.7995 35.3253L95.806 35.3311L97.8057 33.0947ZM94.6074 28.5781L91.8487 29.7569L91.8526 29.766L94.6074 28.5781ZM95.0957 14.1006L92.3295 12.9395L92.3265 12.9467L92.3234 12.954L95.0957 14.1006ZM99.7588 7.04492L101.914 9.13203L101.915 9.1306L99.7588 7.04492ZM106.79 2.25977L107.987 5.01047L107.995 5.00713L106.79 2.25977ZM125.735 2.69922L124.141 5.24079L125.867 6.32289L127.509 5.11843L125.735 2.69922ZM127.566 1.35645V-1.64355H126.584L125.792 -1.06277L127.566 1.35645ZM129.69 1.35645L132.624 1.98503L133.401 -1.64355H129.69V1.35645ZM126.98 14.0029V17.0029H129.406L129.914 14.6315L126.98 14.0029ZM124.832 14.0029L121.844 14.2662L122.085 17.0029H124.832V14.0029ZM121.878 5.58008L119.581 7.51011L119.59 7.52052L119.599 7.53086L121.878 5.58008ZM106.106 9.53516L103.457 8.12724L103.454 8.1335L103.451 8.13977L106.106 9.53516ZM103.787 16.2246L100.852 15.6037L100.851 15.6109L100.849 15.618L103.787 16.2246ZM118.191 31.6787L119.836 34.1874L118.191 31.6787ZM123.929 26.0391L125.608 23.5529L123.239 21.9534L121.527 24.2416L123.929 26.0391ZM125.809 27.3086L128.33 28.9342L129.921 26.466L127.488 24.8224L125.809 27.3086ZM122.952 30.9707L125.147 33.0155L125.154 33.0081L125.161 33.0006L122.952 30.9707ZM119.168 34.0713L117.586 31.5223L117.575 31.5289L119.168 34.0713ZM114.578 36.1953L113.692 33.3292L113.683 33.3319L114.578 36.1953ZM108.938 33.9277C107.003 33.9277 105.268 33.6458 103.708 33.1125L101.767 38.7899C104.015 39.5586 106.414 39.9277 108.938 39.9277V33.9277ZM103.729 33.12C102.164 32.5714 100.87 31.8107 99.8053 30.8583L95.806 35.3311C97.5078 36.8527 99.5019 37.9963 101.745 38.7824L103.729 33.12ZM99.8184 30.8701C98.7853 29.9354 97.9653 28.7889 97.3622 27.3903L91.8526 29.766C92.7795 31.9155 94.0917 33.7801 95.7929 35.3193L99.8184 30.8701ZM97.3662 27.3994C96.783 26.0345 96.46 24.4261 96.46 22.5234H90.46C90.46 25.113 90.9019 27.541 91.8487 29.7569L97.3662 27.3994ZM96.46 22.5234C96.46 19.9208 96.9344 17.5044 97.868 15.2471L92.3234 12.954C91.076 15.9702 90.46 19.1691 90.46 22.5234H96.46ZM97.8619 15.2617C98.8233 12.9712 100.17 10.9328 101.914 9.13203L97.6038 4.95781C95.344 7.29112 93.5816 9.95655 92.3295 12.9395L97.8619 15.2617ZM101.915 9.1306C103.538 7.45233 105.547 6.07269 107.987 5.01046L105.593 -0.49093C102.499 0.855694 99.8203 2.66616 97.6024 4.95925L101.915 9.1306ZM107.995 5.00713C110.387 3.9578 112.93 3.42871 115.652 3.42871V-2.57129C112.125 -2.57129 108.759 -1.87968 105.585 -0.487599L107.995 5.00713ZM115.652 3.42871C117.297 3.42871 118.979 3.62697 120.703 4.03256L122.077 -1.80795C119.927 -2.31382 117.784 -2.57129 115.652 -2.57129V3.42871ZM120.703 4.03256C122.522 4.46076 123.595 4.89831 124.141 5.24079L127.329 0.157647C125.955 -0.7043 124.131 -1.3247 122.077 -1.80795L120.703 4.03256ZM127.509 5.11843L129.34 3.77566L125.792 -1.06277L123.961 0.280004L127.509 5.11843ZM127.566 4.35645H129.69V-1.64355H127.566V4.35645ZM126.757 0.727858L124.047 13.3743L129.914 14.6315L132.624 1.98503L126.757 0.727858ZM126.98 11.0029H124.832V17.0029H126.98V11.0029ZM127.82 13.7396C127.465 9.69961 126.357 6.19966 124.157 3.6293L119.599 7.53086C120.686 8.80164 121.549 10.9169 121.844 14.2662L127.82 13.7396ZM124.175 3.65005C121.966 1.02207 119.02 -0.325195 115.579 -0.325195V5.6748C117.282 5.6748 118.534 6.26439 119.581 7.51011L124.175 3.65005ZM115.579 -0.325195C113.051 -0.325195 110.71 0.439985 108.627 1.90639L112.082 6.81236C113.189 6.03267 114.331 5.6748 115.579 5.6748V-0.325195ZM108.627 1.90639C106.536 3.37868 104.841 5.52297 103.457 8.12724L108.756 10.9431C109.845 8.8924 110.983 7.58617 112.082 6.81236L108.627 1.90639ZM103.451 8.13977C102.291 10.3467 101.435 12.846 100.852 15.6037L106.722 16.8455C107.213 14.5251 107.904 12.5647 108.762 10.9305L103.451 8.13977ZM100.849 15.618C100.294 18.3088 100.006 20.8819 100.006 23.3291H106.006C106.006 21.3492 106.239 19.186 106.725 16.8312L100.849 15.618ZM100.006 23.3291C100.006 27.0496 100.911 30.3739 103.115 32.8959L107.633 28.9478C106.679 27.8566 106.006 26.119 106.006 23.3291H100.006ZM103.115 32.8959C105.328 35.428 108.306 36.6318 111.722 36.6318V30.6318C109.832 30.6318 108.578 30.029 107.633 28.9478L103.115 32.8959ZM111.722 36.6318C114.646 36.6318 117.372 35.8032 119.836 34.1874L116.546 29.17C115.039 30.1584 113.452 30.6318 111.722 30.6318V36.6318ZM119.836 34.1874C122.185 32.6473 124.34 30.4959 126.331 27.8365L121.527 24.2416C119.839 26.4976 118.169 28.106 116.546 29.17L119.836 34.1874ZM122.25 28.5252L124.13 29.7948L127.488 24.8224L125.608 23.5529L122.25 28.5252ZM123.287 25.683C122.592 26.7618 121.747 27.8483 120.743 28.9408L125.161 33.0006C126.371 31.6842 127.43 30.3294 128.33 28.9342L123.287 25.683ZM120.757 28.9259C119.836 29.9145 118.782 30.7799 117.586 31.5224L120.75 36.6202C122.386 35.6049 123.855 34.4032 125.147 33.0155L120.757 28.9259ZM117.575 31.5289C116.302 32.3265 115.008 32.9221 113.692 33.3293L115.465 39.0614C117.306 38.492 119.072 37.6715 120.76 36.6137L117.575 31.5289ZM113.683 33.3319C112.49 33.7047 110.929 33.9277 108.938 33.9277V39.9277C111.342 39.9277 113.541 39.6625 115.473 39.0588L113.683 33.3319ZM138.528 35.9512L137.536 38.7824L137.547 38.7862L137.558 38.7899L138.528 35.9512ZM133.597 33.0947L131.584 35.3193L131.59 35.3253L131.597 35.3311L133.597 33.0947ZM130.398 28.5781L127.64 29.7569L127.644 29.766L130.398 28.5781ZM130.887 14.1006L128.121 12.9395L128.117 12.9467L128.114 12.954L130.887 14.1006ZM135.55 7.04492L137.705 9.13203L137.706 9.1306L135.55 7.04492ZM142.581 2.25977L143.778 5.01047L143.786 5.00713L142.581 2.25977ZM161.526 2.69922L159.933 5.24079L161.658 6.32289L163.3 5.11843L161.526 2.69922ZM163.357 1.35645V-1.64355H162.375L161.583 -1.06277L163.357 1.35645ZM165.481 1.35645L168.415 1.98503L169.192 -1.64355H165.481V1.35645ZM162.771 14.0029V17.0029H165.197L165.705 14.6315L162.771 14.0029ZM160.623 14.0029L157.635 14.2662L157.876 17.0029H160.623V14.0029ZM157.669 5.58008L155.372 7.51011L155.381 7.52052L155.39 7.53086L157.669 5.58008ZM141.897 9.53516L139.248 8.12724L139.245 8.1335L139.242 8.13977L141.897 9.53516ZM139.578 16.2246L136.643 15.6037L136.642 15.6109L136.64 15.618L139.578 16.2246ZM153.982 31.6787L155.627 34.1874L153.982 31.6787ZM159.72 26.0391L161.399 23.5529L159.03 21.9534L157.318 24.2416L159.72 26.0391ZM161.6 27.3086L164.121 28.9342L165.712 26.466L163.279 24.8224L161.6 27.3086ZM158.743 30.9707L160.938 33.0155L160.945 33.0081L160.952 33.0006L158.743 30.9707ZM154.959 34.0713L153.377 31.5223L153.366 31.5289L154.959 34.0713ZM150.369 36.1953L149.483 33.3292L149.474 33.3319L150.369 36.1953ZM144.729 33.9277C142.794 33.9277 141.059 33.6458 139.499 33.1125L137.558 38.7899C139.806 39.5586 142.205 39.9277 144.729 39.9277V33.9277ZM139.52 33.12C137.955 32.5714 136.661 31.8107 135.596 30.8583L131.597 35.3311C133.299 36.8527 135.293 37.9963 137.536 38.7824L139.52 33.12ZM135.609 30.8701C134.576 29.9354 133.756 28.7889 133.153 27.3903L127.644 29.766C128.57 31.9155 129.883 33.7801 131.584 35.3193L135.609 30.8701ZM133.157 27.3994C132.574 26.0345 132.251 24.4261 132.251 22.5234H126.251C126.251 25.113 126.693 27.541 127.64 29.7569L133.157 27.3994ZM132.251 22.5234C132.251 19.9208 132.725 17.5044 133.659 15.2471L128.114 12.954C126.867 15.9702 126.251 19.1691 126.251 22.5234H132.251ZM133.653 15.2617C134.614 12.9712 135.961 10.9328 137.705 9.13203L133.395 4.95781C131.135 7.29112 129.373 9.95655 128.121 12.9395L133.653 15.2617ZM137.706 9.1306C139.329 7.45233 141.338 6.07269 143.778 5.01046L141.384 -0.49093C138.29 0.855694 135.611 2.66616 133.393 4.95925L137.706 9.1306ZM143.786 5.00713C146.179 3.9578 148.721 3.42871 151.443 3.42871V-2.57129C147.916 -2.57129 144.55 -1.87968 141.376 -0.487599L143.786 5.00713ZM151.443 3.42871C153.088 3.42871 154.77 3.62697 156.494 4.03256L157.868 -1.80795C155.718 -2.31382 153.575 -2.57129 151.443 -2.57129V3.42871ZM156.494 4.03256C158.313 4.46076 159.386 4.89831 159.933 5.24079L163.12 0.157647C161.746 -0.7043 159.922 -1.3247 157.868 -1.80795L156.494 4.03256ZM163.3 5.11843L165.132 3.77566L161.583 -1.06277L159.752 0.280004L163.3 5.11843ZM163.357 4.35645H165.481V-1.64355H163.357V4.35645ZM162.548 0.727858L159.838 13.3743L165.705 14.6315L168.415 1.98503L162.548 0.727858ZM162.771 11.0029H160.623V17.0029H162.771V11.0029ZM163.611 13.7396C163.256 9.69961 162.148 6.19966 159.948 3.6293L155.39 7.53086C156.478 8.80164 157.34 10.9169 157.635 14.2662L163.611 13.7396ZM159.966 3.65005C157.757 1.02207 154.811 -0.325195 151.37 -0.325195V5.6748C153.073 5.6748 154.325 6.26439 155.372 7.51011L159.966 3.65005ZM151.37 -0.325195C148.842 -0.325195 146.501 0.439985 144.418 1.90639L147.873 6.81236C148.98 6.03267 150.122 5.6748 151.37 5.6748V-0.325195ZM144.418 1.90639C142.327 3.37868 140.632 5.52297 139.248 8.12724L144.547 10.9431C145.636 8.8924 146.774 7.58617 147.873 6.81236L144.418 1.90639ZM139.242 8.13977C138.082 10.3467 137.226 12.846 136.643 15.6037L142.513 16.8455C143.004 14.5251 143.695 12.5647 144.553 10.9305L139.242 8.13977ZM136.64 15.618C136.085 18.3088 135.797 20.8819 135.797 23.3291H141.797C141.797 21.3492 142.03 19.186 142.516 16.8312L136.64 15.618ZM135.797 23.3291C135.797 27.0496 136.702 30.3739 138.906 32.8959L143.424 28.9478C142.47 27.8566 141.797 26.119 141.797 23.3291H135.797ZM138.906 32.8959C141.119 35.428 144.097 36.6318 147.513 36.6318V30.6318C145.623 30.6318 144.369 30.029 143.424 28.9478L138.906 32.8959ZM147.513 36.6318C150.437 36.6318 153.164 35.8032 155.627 34.1874L152.337 29.17C150.83 30.1584 149.243 30.6318 147.513 30.6318V36.6318ZM155.627 34.1874C157.976 32.6473 160.132 30.4959 162.122 27.8365L157.318 24.2416C155.63 26.4976 153.96 28.106 152.337 29.17L155.627 34.1874ZM158.041 28.5252L159.921 29.7948L163.279 24.8224L161.399 23.5529L158.041 28.5252ZM159.078 25.683C158.383 26.7618 157.538 27.8483 156.534 28.9408L160.952 33.0006C162.162 31.6842 163.221 30.3294 164.121 28.9342L159.078 25.683ZM156.548 28.9259C155.627 29.9145 154.573 30.7799 153.377 31.5224L156.541 36.6202C158.177 35.6049 159.646 34.4032 160.938 33.0155L156.548 28.9259ZM153.366 31.5289C152.093 32.3265 150.799 32.9221 149.483 33.3293L151.256 39.0614C153.097 38.492 154.863 37.6715 156.551 36.6137L153.366 31.5289ZM149.474 33.3319C148.281 33.7047 146.72 33.9277 144.729 33.9277V39.9277C147.133 39.9277 149.332 39.6625 151.264 39.0588L149.474 33.3319Z" fill="white"/>
</svg>
